# xmcd
#
# Track frame offsets: 
#        150
#        10127
#        26265
#        43192
#        55644
#        69452
#        86485
#        100399
#        114984
#        137364
#        153735
#        170012
#        185902
#        195161
#        214263
#        232955
#        252938
#        264509
#
# Disc length: 3800 seconds
#
# Revision: 0
# Processed by: cddbd v1.5.2PL0 Copyright (c) Steve Scherf et al.
# Submitted via: ExactAudioCopy v1.1
#
DISCID=ef0ed612
DTITLE=Various Artist - 1000 Klassiekers Radio 2 Vol. 10 - CD 4
DYEAR=2018
DGENRE=Easy Listening
TTITLE0=The Kinks - You Really Got Me
TTITLE1=Technotronic - Pump Up The Jam
TTITLE2=The Radios - She Goes Nana
TTITLE3=Louis Neefs - Jennifer Jennings
TTITLE4=Alison Moyet - That Ole Devil Called Love
TTITLE5=Gareth Gates - Anyone Of Us
TTITLE6=Zjef Vanuytsel - Tussen Antwerpen En Rotterdam
TTITLE7=Labelle - Lady Marmalade
TTITLE8=Aerosmith - I Don't Want To Miss A Thing
TTITLE9=Taylor Dayne - Tell It To My Heart
TTITLE10=Paul Simon - 50 Ways To Leave Your Lover
TTITLE11=The Jacksons - Blame It On The Boogie
TTITLE12=Bill Withers - Ain't No Sunshine
TTITLE13=Jeff Buckley - Hallelujah
TTITLE14=Jimmy Cliff - Reggae Night
TTITLE15=Toto - Stop Loving You
TTITLE16=Paul Anka and Joe Sherman - Put Your Head On My Shoulder
TTITLE17=Baccara - Yes Sir, I Can Boogie
EXTD=
EXTT0=
EXTT1=
EXTT2=
EXTT3=
EXTT4=
EXTT5=
EXTT6=
EXTT7=
EXTT8=
EXTT9=
EXTT10=
EXTT11=
EXTT12=
EXTT13=
EXTT14=
EXTT15=
EXTT16=
EXTT17=
PLAYORDER=
